PathFileType	4	(X/Y/Z)	\\147.46.242.158\로컬 디스크 (e)\MOCAP Data\Iguana Capture\iguana\Project 2\Capture day 6 after broken\Session 1\Take09.trc
DataRate	CameraRate	NumFrames	NumMarkers	Units	OrigDataRate	OrigDataStartFrame	OrigNumFrames
120.0	120.0	11	23	mm	120.0	25	2476
Frame#	Time	ana:head1			ana:head2			ana:bone1			ana:bone2			ana:bone3			ana:tail1			ana:tail2			ana:tail3			ana:tail4			ana:Rforefoot1			ana:Rforefoot2			ana:Rforefoot3			ana:Lforefoot1			ana:Lforefoot2			ana:Lforefoot3			ana:RhindLeg1			ana:RhindLeg2			ana:RhindLeg3			ana:RhindLeg4			ana:LhindLeg1			ana:LhindLeg2			ana:LhindLeg3			ana:LhindLeg4			
		X1	Y1	Z1	X2	Y2	Z2	X3	Y3	Z3	X4	Y4	Z4	X5	Y5	Z5	X6	Y6	Z6	X7	Y7	Z7	X8	Y8	Z8	X9	Y9	Z9	X10	Y10	Z10	X11	Y11	Z11	X12	Y12	Z12	X13	Y13	Z13	X14	Y14	Z14	X15	Y15	Z15	X16	Y16	Z16	X17	Y17	Z17	X18	Y18	Z18	X19	Y19	Z19	X20	Y20	Z20	X21	Y21	Z21	X22	Y22	Z22	X23	Y23	Z23	

1150	9.575	9.86750	-64.90044	97.41740	2.18461	-73.15260	98.21178	-9.52597	-90.56895	86.95219	-26.88221	-112.40800	76.49507	-48.73925	-132.11650	61.49732	-68.91830	-155.50826	55.38235	-99.21632	-182.97186	51.32833	-134.31247	-195.69556	39.13752	-163.26759	-194.29039	18.62424	4.03872	-92.24009	76.40260	5.21530	-108.17181	78.04248	21.65413	-108.84063	69.62532	-8.76119	-75.08253	68.97347	-13.49393	-66.87132	56.70286	0.77502	-61.34206	51.10298	-38.73848	-136.82507	55.50196	-22.85290	-135.89438	57.27483	-5.64173	-138.73515	43.07077	5.33440	-131.62195	40.00054	-57.19346	-123.46066	54.95926	-65.39780	-109.41020	50.16245	-76.04738	-117.19041	35.83344	-81.88147	-106.14665	28.95623	
1151	9.583	23.93273	-60.13318	95.52276	16.82209	-68.22787	96.75837	4.57829	-85.44426	84.71182	-11.44001	-107.96308	74.13935	-33.80265	-127.89797	58.73435	-55.08892	-149.33260	53.23537	-82.95091	-179.47980	50.61626	-116.88190	-197.43448	40.14259	-144.82292	-198.90353	19.40346	17.92310	-88.20153	74.83102	18.56893	-103.04164	76.30177	36.50204	-105.04358	70.99494	7.18220	-70.32950	66.40590	5.54901	-62.19701	52.90265	19.20319	-59.74398	44.50022	-24.72581	-132.12727	49.90133	-7.98901	-133.28305	46.47225	2.48417	-139.16866	30.12830	13.02397	-132.36119	22.72280	-41.08265	-117.70937	53.27931	-45.56385	-100.77087	52.95736	-55.61512	-104.60555	36.76373	-58.15242	-92.06114	36.13699	
1152	9.592	37.35042	-55.12493	94.50336	29.92734	-63.42184	95.19416	18.72270	-80.66949	82.73161	3.97079	-104.07726	71.42925	-18.70774	-123.22192	55.34248	-41.39159	-142.38161	50.15064	-66.85504	-174.16367	49.05965	-97.81808	-198.90132	41.55604	-126.42752	-206.90767	23.81518	32.92883	-82.62663	72.68195	33.53576	-98.09164	73.73286	50.97120	-98.75722	68.52475	21.34435	-65.69331	63.58617	19.34357	-60.68950	48.80896	33.39379	-58.42529	39.08284	-11.83132	-129.22673	44.56181	2.05245	-134.37337	36.40195	4.59540	-141.18738	16.54536	13.39524	-136.45955	7.38544	-24.42162	-111.81547	50.92599	-23.78025	-94.00901	53.02322	-34.10135	-89.07083	36.66359	-29.11285	-77.44337	39.68723	
1153	9.600	50.09393	-51.11585	93.36757	43.09754	-59.20344	93.04586	32.79361	-76.63969	80.58437	18.79112	-99.53689	68.25091	-4.00704	-117.58363	51.79314	-28.40296	-134.20255	46.45460	-50.86047	-167.20554	46.10454	-76.84343	-197.38338	43.00616	-105.08006	-213.44098	31.03596	47.16369	-77.12169	70.43590	50.02623	-92.01086	70.30604	67.92892	-90.51573	64.29990	33.83363	-60.82490	60.98481	30.07355	-58.83611	45.85233	43.68004	-56.44925	34.51284	0.82750	-124.53394	40.25179	11.15969	-133.69060	30.89264	1.72243	-139.94827	13.07268	11.50989	-135.27481	6.05448	-7.50165	-105.47844	47.51954	-2.89379	-88.04891	48.87927	-8.81788	-76.25856	34.08321	0.89996	-65.31109	36.46207	
1154	9.608	63.98535	-45.44260	91.89360	56.63330	-53.36678	91.61297	46.23618	-70.72960	78.32533	32.55966	-93.65926	66.43562	9.94134	-110.96416	48.72762	-15.59456	-124.83990	42.43743	-35.88699	-158.43854	43.36803	-56.02415	-192.33530	44.50277	-79.36413	-217.19734	38.08389	61.38274	-71.39127	67.75780	66.01064	-86.45260	66.61327	82.65186	-82.65502	59.12352	47.05815	-56.14836	58.74787	41.29306	-53.24670	44.51419	53.22393	-50.58334	31.91733	13.85158	-120.21134	39.79808	19.46630	-133.40894	31.29993	5.76249	-138.62199	16.77832	13.29022	-135.48642	7.06413	8.78522	-99.05178	42.87626	15.43445	-81.78431	40.45235	17.25873	-66.74356	26.25381	27.55811	-61.49490	22.18165	
1155	9.617	78.14275	-39.25557	89.83926	70.72609	-46.79049	90.05870	59.52984	-63.37133	76.55148	45.34551	-86.25530	64.34677	24.13126	-103.91948	45.56088	-1.44941	-115.83924	38.45239	-22.72556	-148.50848	41.33348	-37.00747	-184.73022	47.40757	-50.72192	-215.92413	44.15976	75.42364	-65.09217	66.61638	80.75375	-79.94104	65.02171	96.84454	-76.51881	56.19175	60.85575	-50.15428	56.71836	52.92985	-48.33047	43.85062	64.60522	-43.38355	30.92227	27.11412	-114.02367	39.12238	27.95301	-129.86247	33.75303	11.05861	-132.98425	21.81280	15.45891	-132.81506	9.03469	24.70373	-93.13350	37.03857	32.48165	-76.56163	29.54293	35.43998	-67.20206	12.00251	45.66724	-61.42093	5.77356	
1156	9.625	92.78925	-32.01591	88.40134	85.10532	-39.95170	88.64003	73.02613	-55.61272	74.37918	59.03764	-78.88364	61.91468	39.40607	-97.86201	43.32134	13.99737	-110.38585	35.24148	-9.50512	-139.83424	38.71200	-19.78712	-176.32225	50.04559	-25.50303	-209.82539	52.89257	89.49019	-57.92728	65.56605	94.12614	-73.78828	66.17783	110.32467	-73.25094	58.08320	76.39655	-42.61660	54.96508	67.07107	-42.29698	42.42979	78.29725	-35.37313	29.69379	41.68217	-107.57424	38.90784	40.54322	-123.95482	36.77002	22.15552	-126.99723	27.59980	20.03594	-128.43706	12.13301	40.81572	-88.03959	33.11615	45.33312	-76.08820	22.75094	38.12242	-71.42928	6.54071	46.47233	-63.59452	3.92030	
1157	9.633	107.35435	-25.01956	87.01416	100.88483	-33.14844	87.54920	88.29748	-50.40308	73.59268	74.21629	-72.34137	60.37066	54.58036	-92.25790	42.41388	29.47701	-106.94129	33.83572	4.66775	-135.45363	35.60612	-5.52538	-169.03008	51.42159	-5.97447	-200.15425	63.33600	104.32272	-51.83655	65.45242	106.33968	-67.67776	67.32926	124.20649	-68.81743	62.10048	91.13736	-36.82952	53.90960	82.66611	-34.25742	41.23376	94.42786	-28.20224	29.44315	57.99510	-101.54053	38.02590	58.84506	-117.54468	38.15678	40.03152	-122.07935	31.67342	32.17613	-124.43681	18.34885	53.26627	-82.32348	32.92135	51.17176	-68.20525	23.63063	40.12294	-72.07344	8.77010	46.99204	-63.63604	3.60309	
1158	9.642	123.19161	-19.87124	86.45301	116.36184	-28.29316	87.13005	104.52762	-44.88909	72.63529	89.95158	-66.27678	59.21225	70.89552	-86.96407	41.73865	45.71369	-103.90797	34.92499	19.53039	-132.33177	37.22869	6.18203	-163.84987	53.14581	7.05920	-192.16583	70.94275	120.95351	-45.64315	65.32991	121.43344	-60.16994	67.71540	139.12521	-63.01554	63.24672	106.74075	-30.63280	53.74321	97.82520	-27.21085	41.55264	110.11324	-21.33596	30.84326	74.80808	-94.98505	37.86240	80.06668	-110.01777	40.67612	61.44709	-114.48847	32.78501	54.55980	-124.11196	25.04293	66.80323	-78.22205	32.14547	57.84821	-66.32989	23.43235	44.29910	-72.00324	12.30450	48.17716	-63.08970	5.27541	
1159	9.650	140.68330	-16.04436	85.95190	132.37282	-23.52408	85.81889	121.06622	-39.69340	71.85802	105.40775	-59.91289	57.67548	85.35722	-81.56690	41.74738	62.73541	-101.36019	37.84328	36.11921	-129.33807	42.08310	20.31800	-160.45872	56.84959	18.90803	-189.74863	72.69529	136.30228	-40.51614	63.40694	139.10179	-55.24433	64.97065	156.37975	-55.33953	58.79589	122.48838	-24.33339	54.08443	112.75568	-21.43385	42.55007	125.15131	-14.11965	32.10931	91.31209	-88.96615	38.22579	101.10406	-99.67927	43.21830	83.99570	-108.51466	33.77197	84.52821	-120.26536	29.59549	79.13127	-74.30539	32.60315	67.39099	-64.51622	24.85882	51.07888	-71.70949	16.81373	49.90261	-62.41434	7.70376	
1160	9.658	159.73930	-12.76805	85.09498	151.06577	-20.06809	84.82201	138.69795	-34.90693	70.71001	121.30308	-54.21402	57.09959	100.21915	-75.40335	41.65008	80.27456	-97.23913	40.79606	54.33369	-126.63987	47.50607	36.05664	-157.95178	60.01624	30.22098	-189.38689	71.58491	153.44836	-36.10037	59.99216	157.32410	-51.09126	58.90298	172.88348	-49.01789	49.19626	140.28618	-18.06897	54.54581	128.00470	-13.98960	45.25551	140.13104	-5.15506	35.19744	107.06215	-81.69200	38.86454	120.75771	-87.75914	44.34190	111.34124	-102.88660	34.13541	119.68834	-111.57319	33.82739	92.07652	-69.28754	33.51220	77.93100	-62.57930	26.54310	60.13678	-66.68836	19.31088	53.88099	-59.68299	8.68262	
